<svg width="26" height="26" viewBox="0 0 26 26" fill="none" xmlns="http://www.w3.org/2000/svg">
<path d="M11.375 4.0625H4.875C4.65951 4.0625 4.45285 4.1481 4.30048 4.30048C4.1481 4.45285 4.0625 4.65951 4.0625 4.875V13.1083C4.0625 13.3238 4.1481 13.5305 4.30048 13.6829C4.45285 13.8352 4.65951 13.9208 4.875 13.9208H11.375C11.5905 13.9208 11.7972 13.8352 11.9495 13.6829C12.1019 13.5305 12.1875 13.3238 12.1875 13.1083V4.875C12.1875 4.65951 12.1019 4.45285 11.9495 4.30048C11.7972 4.1481 11.5905 4.0625 11.375 4.0625ZM10.5625 12.2958H5.6875V5.6875H10.5625V12.2958ZM21.125 4.0625H14.625C14.4095 4.0625 14.2028 4.1481 14.0505 4.30048C13.8981 4.45285 13.8125 4.65951 13.8125 4.875V9.64167C13.8125 9.85716 13.8981 10.0638 14.0505 10.2162C14.2028 10.3686 14.4095 10.4542 14.625 10.4542H21.125C21.3405 10.4542 21.5472 10.3686 21.6995 10.2162C21.8519 10.0638 21.9375 9.85716 21.9375 9.64167V4.875C21.9375 4.65951 21.8519 4.45285 21.6995 4.30048C21.5472 4.1481 21.3405 4.0625 21.125 4.0625ZM20.3125 8.82917H15.4375V5.6875H20.3125V8.82917ZM11.375 15.5458H4.875C4.65951 15.5458 4.45285 15.6314 4.30048 15.7838C4.1481 15.9362 4.0625 16.1428 4.0625 16.3583V21.125C4.0625 21.3405 4.1481 21.5472 4.30048 21.6995C4.45285 21.8519 4.65951 21.9375 4.875 21.9375H11.375C11.5905 21.9375 11.7972 21.8519 11.9495 21.6995C12.1019 21.5472 12.1875 21.3405 12.1875 21.125V16.3583C12.1875 16.1428 12.1019 15.9362 11.9495 15.7838C11.7972 15.6314 11.5905 15.5458 11.375 15.5458ZM10.5625 20.3125H5.6875V17.1708H10.5625V20.3125ZM21.125 12.0792H14.625C14.4095 12.0792 14.2028 12.1648 14.0505 12.3171C13.8981 12.4695 13.8125 12.6762 13.8125 12.8917V21.125C13.8125 21.3405 13.8981 21.5472 14.0505 21.6995C14.2028 21.8519 14.4095 21.9375 14.625 21.9375H21.125C21.3405 21.9375 21.5472 21.8519 21.6995 21.6995C21.8519 21.5472 21.9375 21.3405 21.9375 21.125V12.8917C21.9375 12.6762 21.8519 12.4695 21.6995 12.3171C21.5472 12.1648 21.3405 12.0792 21.125 12.0792ZM20.3125 20.3125H15.4375V13.7042H20.3125V20.3125Z" fill="currentColor"/>
</svg>
