<svg width="29" height="29" viewBox="0 0 29 29" fill="none" xmlns="http://www.w3.org/2000/svg">
<path d="M28.6538 13.36C28.6538 13.8039 28.6538 14.2484 28.6538 14.6922C28.6433 14.7551 28.6309 14.8173 28.6237 14.8808C28.5745 15.3266 28.5444 15.7756 28.4749 16.2188C28.1565 18.2495 27.4116 20.1231 26.2356 21.8228C24.4838 24.3545 22.1435 26.1626 19.2052 27.2152C18.1674 27.5872 17.1008 27.8431 15.9995 27.9515C15.6805 27.983 15.362 28.0189 15.043 28.0529C14.5772 28.0529 14.112 28.0529 13.6462 28.0529C13.6003 28.0426 13.5551 28.0285 13.5086 28.0234C12.9707 27.9637 12.4289 27.9272 11.8956 27.8438C10.0913 27.5609 8.4148 26.9323 6.85946 25.9978C4.71056 24.706 3.0196 22.9793 1.7925 20.8222C0.823528 19.118 0.247648 17.2932 0.0655154 15.3497C0.0458608 15.1425 0.0222752 14.9353 0 14.7281C0 14.2606 0 13.793 0 13.3254C0.0117928 13.2574 0.0255508 13.1894 0.0340678 13.1208C0.0969625 12.5884 0.127755 12.0502 0.226683 11.5243C0.664981 9.19146 1.63592 7.09276 3.15915 5.24292C4.79769 3.25261 6.84112 1.80558 9.28025 0.895414C10.3639 0.491324 11.4835 0.225778 12.6366 0.0994194C12.9609 0.0635002 13.2865 0.0327121 13.6115 0C14.0891 0 14.5667 0 15.0443 0C15.0954 0.010904 15.1458 0.029505 15.1976 0.0320707C16.0749 0.0679899 16.937 0.205253 17.7874 0.414354C20.5247 1.08848 22.8642 2.43096 24.7891 4.45141C27.0061 6.7791 28.2673 9.53462 28.5896 12.7013C28.6106 12.9206 28.6315 13.14 28.6538 13.36ZM14.3184 26.5526C15.4472 26.5539 16.5544 26.4109 17.6413 26.1242C19.7686 25.5629 21.622 24.5277 23.2134 23.0377C23.3038 22.953 23.3078 22.8933 23.2593 22.7843C22.6939 21.5053 21.8933 20.3873 20.8221 19.4727C18.345 17.3586 15.4708 16.5838 12.2625 17.2637C9.07716 17.9384 6.81884 19.8062 5.43385 22.6932C5.34343 22.8818 5.36964 22.9793 5.51967 23.1159C8.0027 25.3711 10.9378 26.5071 14.3184 26.5526ZM9.20557 10.5141C9.20426 13.2676 11.4993 15.5274 14.3027 15.5331C17.1355 15.5389 19.4463 13.2901 19.4476 10.5256C19.4489 7.76496 17.148 5.50718 14.3328 5.5059C11.5124 5.50526 9.20688 7.75726 9.20557 10.5141Z" fill="#8F95A4"/>
</svg>
