<svg width="36" height="26" viewBox="0 0 36 26" fill="none" xmlns="http://www.w3.org/2000/svg">
<path d="M17.4313 2.82607C18.5027 2.82607 19.3703 3.69371 19.3703 4.76506C19.3703 5.83641 18.5027 6.70405 17.4313 6.70405C16.36 6.70405 15.4923 5.83641 15.4923 4.76506C15.4923 3.69371 16.36 2.82607 17.4313 2.82607ZM17.4313 1.00024C15.355 1.00024 13.6665 2.68875 13.6665 4.76506C13.6665 6.84136 15.355 8.52987 17.4313 8.52987C19.5076 8.52987 21.1961 6.84136 21.1961 4.76506C21.1961 2.68875 19.5076 1.00024 17.4313 1.00024Z" fill="#3C32A3" stroke="#3C32A3"/>
<path d="M7.38615 2.82582C8.4575 2.82582 9.32514 3.69346 9.32514 4.76481C9.32514 5.83616 8.4575 6.70381 7.38615 6.70381C6.3148 6.70381 5.44716 5.83616 5.44716 4.76481C5.44716 3.69346 6.3148 2.82582 7.38615 2.82582ZM7.38615 1C5.30984 1 3.62134 2.68851 3.62134 4.76481C3.62134 6.84112 5.30984 8.52963 7.38615 8.52963C9.46246 8.52963 11.151 6.84112 11.151 4.76481C11.151 2.68851 9.46246 1 7.38615 1Z" fill="#825EF6" stroke="#825EF6"/>
<path d="M27.4552 2.82582C28.5266 2.82582 29.3942 3.69346 29.3942 4.76481C29.3942 5.83616 28.5266 6.70381 27.4552 6.70381C26.3839 6.70381 25.5162 5.83616 25.5162 4.76481C25.5162 3.69346 26.3839 2.82582 27.4552 2.82582ZM27.4552 1C25.3789 1 23.6904 2.68851 23.6904 4.76481C23.6904 6.84112 25.3789 8.52963 27.4552 8.52963C29.5315 8.52963 31.2201 6.84112 31.2201 4.76481C31.2201 2.68851 29.5315 1 27.4552 1Z" fill="#42D3D8" stroke="#42D3D8"/>
<path d="M14.9174 14.3591L11.1979 10.6381C10.3695 9.80966 9.26944 9.35547 8.10001 9.35547C6.92907 9.35547 5.82905 9.81117 5.00215 10.6381L1.28109 14.3591C-0.427031 16.0672 -0.427031 18.8482 1.28109 20.5564L3.52942 22.8032L5.00215 24.2759C5.83056 25.1043 6.93058 25.5585 8.10001 25.5585C8.16037 25.5585 8.21771 25.557 8.27655 25.554C9.3811 25.5102 10.4132 25.0606 11.1994 24.2744L14.9189 20.5548C15.0623 20.413 15.1905 20.2636 15.3097 20.1067C16.6135 18.3925 16.4837 15.9269 14.9174 14.3591ZM12.4593 18.0983L8.7398 21.8178C8.69604 21.8616 8.64625 21.9008 8.59494 21.934C8.57683 21.9461 8.55873 21.9567 8.54062 21.9657C8.53157 21.9733 8.5195 21.9778 8.51044 21.9823C8.49384 21.9914 8.47724 21.9989 8.46065 22.0065C8.44707 22.014 8.43348 22.0185 8.41689 22.0246C8.41085 22.0276 8.40481 22.0291 8.39878 22.0321C8.39878 22.0321 8.39274 22.0336 8.3852 22.0366C8.38067 22.0381 8.37614 22.0396 8.37162 22.0412C8.35804 22.0472 8.34295 22.0502 8.32786 22.0532C8.32182 22.0547 8.31579 22.0562 8.30824 22.0578C8.29919 22.0608 8.28712 22.0623 8.27655 22.0653C8.2509 22.0728 8.22676 22.0759 8.20111 22.0774C8.18753 22.0789 8.17395 22.0804 8.15886 22.0819C8.13773 22.0834 8.11811 22.0849 8.0985 22.0849C8.09699 22.0849 8.09699 22.0849 8.09548 22.0849C7.97477 22.0849 7.85254 22.0593 7.73937 22.0095C7.63676 21.9657 7.54019 21.9023 7.4572 21.8193L5.37938 19.743L3.73614 18.0998C3.38305 17.7452 3.38305 17.1718 3.73614 16.8187L7.4572 13.0976C7.63374 12.9211 7.86612 12.8321 8.09699 12.8321C8.32937 12.8321 8.56024 12.9211 8.73678 13.0976L12.4563 16.8187C12.7747 17.1356 12.8064 17.6305 12.5514 17.9836C12.5272 18.0228 12.4956 18.0621 12.4593 18.0983Z" fill="#825EF6"/>
<path d="M15.3082 20.108C15.1905 20.265 15.0607 20.4143 14.9173 20.5562L11.1978 24.2757C10.4116 25.0619 9.37951 25.5116 8.27497 25.5553C8.21612 25.5583 8.15878 25.5598 8.09842 25.5598C6.92748 25.5598 5.82746 25.1041 5.00056 24.2772L3.52783 22.8045C4.01824 21.8705 4.64143 20.8384 5.38081 19.7414L7.45863 21.8177C7.54162 21.9007 7.63819 21.9655 7.7408 22.0078C7.85397 22.0576 7.9762 22.0832 8.09691 22.0832C8.09842 22.0832 8.09842 22.0832 8.09993 22.0832C8.12106 22.0832 8.14067 22.0817 8.16029 22.0802C8.17387 22.0787 8.18745 22.0772 8.20254 22.0757C8.22819 22.0712 8.25384 22.0666 8.27799 22.0636C8.28855 22.0606 8.30062 22.0591 8.30967 22.0561C8.31722 22.0546 8.32325 22.0531 8.32929 22.0516C8.34287 22.0485 8.35796 22.044 8.37305 22.0395C8.37908 22.038 8.3821 22.0365 8.38663 22.035C8.39568 22.0319 8.40021 22.0304 8.40021 22.0304C8.40624 22.0274 8.41228 22.0259 8.41832 22.0229C8.43341 22.0168 8.44699 22.0123 8.46208 22.0048C8.47867 21.9972 8.49527 21.9912 8.51187 21.9806C8.52093 21.9761 8.533 21.9716 8.54205 21.964C8.56016 21.955 8.57826 21.9444 8.59637 21.9323C8.64768 21.8991 8.69596 21.8599 8.74123 21.8162L12.4608 18.0966C12.497 18.0604 12.5287 18.0212 12.5558 17.9819L13.2982 18.0966L15.3082 20.108Z" fill="url(#paint0_linear_273_698)"/>
<path d="M24.4782 14.3591L20.7572 10.6396C19.9287 9.81117 18.8287 9.35547 17.6593 9.35547C16.4883 9.35547 15.3883 9.81117 14.5614 10.6396L12.882 12.3205L14.9206 14.3591C15.0639 14.501 15.1922 14.6504 15.3114 14.8073L17.021 13.0992C17.1976 12.9226 17.4299 12.8336 17.6608 12.8336C17.8917 12.8336 18.1256 12.9226 18.3021 13.0992L22.0216 16.8187C22.3762 17.1733 22.3762 17.7452 22.0216 18.0998L18.3021 21.8193C18.1256 21.9959 17.8917 22.0849 17.6608 22.0849C17.4299 22.0849 17.1976 21.9959 17.021 21.8193L15.3129 20.1112C15.3114 20.1112 15.3114 20.1097 15.3114 20.1097L13.3 18.0998C13.1174 17.9157 13.0283 17.6743 13.0374 17.4344C12.8774 17.2638 12.713 17.0933 12.5545 16.9273C12.5274 16.8896 12.4957 16.8519 12.4625 16.8187L12.0023 16.36C11.9857 16.3434 11.9691 16.3253 11.954 16.3102C11.1135 15.4546 10.4541 14.8088 10.4541 14.8088H10.4526C9.87465 15.5678 9.56079 16.4898 9.56079 17.46C9.56079 18.4303 9.87465 19.3522 10.4541 20.1112C10.5718 20.2681 10.7031 20.4175 10.8449 20.5594L13.6259 23.3404L14.5644 24.2804C15.3929 25.1088 16.4929 25.5645 17.6623 25.5645C18.8332 25.5645 19.9333 25.1088 20.7602 24.2804L24.4812 20.5594C26.1863 18.8467 26.1863 16.0672 24.4782 14.3591Z" fill="#3C32A3"/>
<path d="M34.1187 14.3576L30.3992 10.6396C29.9555 10.196 29.4349 9.85946 28.8661 9.64368C28.3726 9.45355 27.8445 9.35547 27.3013 9.35547C26.1304 9.35547 25.0303 9.81268 24.2034 10.6396L22.4817 12.3598L24.4796 14.3576C24.6365 14.5145 24.7799 14.6805 24.9066 14.8541L26.6615 13.0992C26.838 12.9211 27.0704 12.8336 27.3013 12.8336C27.5322 12.8336 27.7645 12.9211 27.9411 13.0992L31.6606 16.8187C32.0137 17.1733 32.0137 17.7452 31.6606 18.0998L27.9411 21.8193C27.763 21.9959 27.5307 22.0849 27.3013 22.0849C27.0689 22.0849 26.838 21.9959 26.6615 21.8193L25.0847 20.244C25.0847 20.2425 25.0831 20.2425 25.0831 20.241L24.9036 20.0629L22.9404 18.0998C22.779 17.9368 22.69 17.7286 22.6779 17.5189C22.4923 17.3227 22.3037 17.1295 22.1211 16.9424C22.0939 16.8987 22.0592 16.8579 22.02 16.8187L21.0829 15.8832L20.9079 15.7066L20.7434 15.5421C20.4326 15.2283 20.2002 14.9974 20.1051 14.9054L20.0569 14.8556H20.0553C18.9161 16.3977 18.9176 18.5223 20.0569 20.0644C20.1851 20.2365 20.327 20.4024 20.4839 20.5579L22.4817 22.5557L23.3177 23.3917L24.2034 24.2774C25.0318 25.1058 26.1319 25.5615 27.3013 25.5615C28.4707 25.5615 29.5723 25.1043 30.3992 24.2774L34.1187 20.5564C35.8268 18.8467 35.8268 16.0672 34.1187 14.3576Z" fill="#42D3D8"/>
<path d="M27.3013 12.8336C27.0689 12.8336 26.838 12.9211 26.6615 13.0992L24.9066 14.8541C24.7783 14.682 24.6365 14.5145 24.4795 14.3576L22.4817 12.3598L24.2034 10.6396C25.0318 9.81117 26.1318 9.35547 27.3013 9.35547C27.8445 9.35547 28.3741 9.45355 28.866 9.64368C30.5651 11.3096 27.3013 12.8336 27.3013 12.8336Z" fill="url(#paint1_linear_273_698)"/>
<defs>
<linearGradient id="paint0_linear_273_698" x1="11.0613" y1="19.0044" x2="8.02551" y2="22.9075" gradientUnits="userSpaceOnUse">
<stop stop-color="#4223ED"/>
<stop offset="0.9944" stop-color="#825EF6"/>
</linearGradient>
<linearGradient id="paint1_linear_273_698" x1="25.6314" y1="12.0814" x2="24.1107" y2="13.6744" gradientUnits="userSpaceOnUse">
<stop stop-color="#42D3D8"/>
<stop offset="0.9944" stop-color="#11AFB7"/>
</linearGradient>
</defs>
</svg>
